<?xml version="1.0" encoding="UTF-8" standalone="no"?>
<svg xmlns="http://www.w3.org/2000/svg" xmlns:xlink="http://www.w3.org/1999/xlink" viewBox="0 0 400 400">

	<linearGradient id="air_clock_diagonal_gradient_1" y1="-20%" y2="120%">
		<stop stop-color="#aaa" offset="0.45" />
		<stop stop-color="#fff" offset="0.5" />
		<stop stop-color="#aaa" offset="0.55" />
	</linearGradient>

	<linearGradient id="air_clock_diagonal_gradient_2" y1="-20%" y2="120%">
		<stop stop-color="#000" offset="0.25" />
		<stop stop-color="#666" offset="0.5" />
		<stop stop-color="#000" offset="0.75" />
	</linearGradient>

	<rect width="100%" height="100%" fill="url(#air_clock_diagonal_gradient_1)" />
	<polygon points="115,5 285,5 395,115 395,285 285,395 115,395 5,285 5,115 115,5" fill="url(#air_clock_diagonal_gradient_2)" stroke-width="4" stroke="#fff" />

	<g id="vint" fill="#666" stroke-width="4" stroke="#000">
		<circle r="20" cx="30" cy="30" stroke-width="1" />
		<line x1="20" y1="20"  x2="40" y2="40" />
		<line x1="20" y1="40"  x2="40" y2="20" />
		<g id="vint" fill="#666" stroke-width="2" stroke="#000">
			<line x1="30" y1="20"  x2="30" y2="40" />
			<line x1="20" y1="30"  x2="40" y2="30" />
		</g>
	</g>
	<use x="0" y="0" xlink:href="#vint" transform="rotate(90 200 200)"/>
	<use x="0" y="0" xlink:href="#vint" transform="rotate(180 200 200)"/>
	<use x="0" y="0" xlink:href="#vint" transform="rotate(270 200 200)" />

	<g fill="#fff" stroke-width="1" stroke="#fff" font-size="40" font-family="Arial" text-anchor="middle">
		<text x="200" y="290">AirClock</text>
		<text x="200" y="315" font-size="20">© RD 2018</text>
	</g>
	<g fill="#000" stroke-width="2" stroke="#fff">

		<g id="notch_s">
			<polygon points="197,15 203,15 203,20 200,30 197,20 197,15"  transform="rotate(0 200 200)" />
		</g>

		<use x="0" y="0" xlink:href="#notch_s" transform="rotate(6 200 200)"/>
		<use x="0" y="0" xlink:href="#notch_s" transform="rotate(12 200 200)"/>
		<use x="0" y="0" xlink:href="#notch_s" transform="rotate(18 200 200)"/>
		<use x="0" y="0" xlink:href="#notch_s" transform="rotate(24 200 200)"/>

		<use x="0" y="0" xlink:href="#notch_s" transform="rotate(36 200 200)"/>
		<use x="0" y="0" xlink:href="#notch_s" transform="rotate(42 200 200)"/>
		<use x="0" y="0" xlink:href="#notch_s" transform="rotate(48 200 200)"/>
		<use x="0" y="0" xlink:href="#notch_s" transform="rotate(54 200 200)"/>

		<use x="0" y="0" xlink:href="#notch_s" transform="rotate(66 200 200)"/>
		<use x="0" y="0" xlink:href="#notch_s" transform="rotate(72 200 200)"/>
		<use x="0" y="0" xlink:href="#notch_s" transform="rotate(78 200 200)"/>
		<use x="0" y="0" xlink:href="#notch_s" transform="rotate(84 200 200)"/>

		<use x="0" y="0" xlink:href="#notch_s" transform="rotate(96 200 200)"/>
		<use x="0" y="0" xlink:href="#notch_s" transform="rotate(102 200 200)"/>
		<use x="0" y="0" xlink:href="#notch_s" transform="rotate(108 200 200)"/>
		<use x="0" y="0" xlink:href="#notch_s" transform="rotate(114 200 200)"/>

		<use x="0" y="0" xlink:href="#notch_s" transform="rotate(126 200 200)"/>
		<use x="0" y="0" xlink:href="#notch_s" transform="rotate(132 200 200)"/>
		<use x="0" y="0" xlink:href="#notch_s" transform="rotate(138 200 200)"/>
		<use x="0" y="0" xlink:href="#notch_s" transform="rotate(144 200 200)"/>

		<use x="0" y="0" xlink:href="#notch_s" transform="rotate(156 200 200)"/>
		<use x="0" y="0" xlink:href="#notch_s" transform="rotate(162 200 200)"/>
		<use x="0" y="0" xlink:href="#notch_s" transform="rotate(168 200 200)"/>
		<use x="0" y="0" xlink:href="#notch_s" transform="rotate(174 200 200)"/>

		<use x="0" y="0" xlink:href="#notch_s" transform="rotate(186 200 200)"/>
		<use x="0" y="0" xlink:href="#notch_s" transform="rotate(192 200 200)"/>
		<use x="0" y="0" xlink:href="#notch_s" transform="rotate(198 200 200)"/>
		<use x="0" y="0" xlink:href="#notch_s" transform="rotate(204 200 200)"/>

		<use x="0" y="0" xlink:href="#notch_s" transform="rotate(216 200 200)"/>
		<use x="0" y="0" xlink:href="#notch_s" transform="rotate(222 200 200)"/>
		<use x="0" y="0" xlink:href="#notch_s" transform="rotate(228 200 200)"/>
		<use x="0" y="0" xlink:href="#notch_s" transform="rotate(234 200 200)"/>

		<use x="0" y="0" xlink:href="#notch_s" transform="rotate(246 200 200)"/>
		<use x="0" y="0" xlink:href="#notch_s" transform="rotate(252 200 200)"/>
		<use x="0" y="0" xlink:href="#notch_s" transform="rotate(258 200 200)"/>
		<use x="0" y="0" xlink:href="#notch_s" transform="rotate(264 200 200)"/>

		<use x="0" y="0" xlink:href="#notch_s" transform="rotate(276 200 200)"/>
		<use x="0" y="0" xlink:href="#notch_s" transform="rotate(282 200 200)"/>
		<use x="0" y="0" xlink:href="#notch_s" transform="rotate(288 200 200)"/>
		<use x="0" y="0" xlink:href="#notch_s" transform="rotate(294 200 200)"/>

		<use x="0" y="0" xlink:href="#notch_s" transform="rotate(306 200 200)"/>
		<use x="0" y="0" xlink:href="#notch_s" transform="rotate(312 200 200)"/>
		<use x="0" y="0" xlink:href="#notch_s" transform="rotate(318 200 200)"/>
		<use x="0" y="0" xlink:href="#notch_s" transform="rotate(324 200 200)"/>

		<use x="0" y="0" xlink:href="#notch_s" transform="rotate(336 200 200)"/>
		<use x="0" y="0" xlink:href="#notch_s" transform="rotate(342 200 200)"/>
		<use x="0" y="0" xlink:href="#notch_s" transform="rotate(348 200 200)"/>
		<use x="0" y="0" xlink:href="#notch_s" transform="rotate(354 200 200)"/>



		<g id="notch_m" fill="#0a0">
			<polygon points="195,15 205,15 205,30 200,45 195,30 195,15"  transform="rotate(0 200 200)" />
		</g>

		<use x="0" y="0" xlink:href="#notch_m" transform="rotate(30 200 200)"/>
		<use x="0" y="0" xlink:href="#notch_m" transform="rotate(60 200 200)"/>

		<use x="0" y="0" xlink:href="#notch_m" transform="rotate(120 200 200)"/>
		<use x="0" y="0" xlink:href="#notch_m" transform="rotate(150 200 200)"/>

		<use x="0" y="0" xlink:href="#notch_m" transform="rotate(210 200 200)"/>
		<use x="0" y="0" xlink:href="#notch_m" transform="rotate(240 200 200)"/>

		<use x="0" y="0" xlink:href="#notch_m" transform="rotate(300 200 200)"/>
		<use x="0" y="0" xlink:href="#notch_m" transform="rotate(330 200 200)"/>



		<g id="notch_b" fill="#a00">
			<polygon points="195,15 205,15 205,45 200,60 195,45 195,15"  transform="rotate(0 200 200)" />
		</g>

		<use x="0" y="0" xlink:href="#notch_b" transform="rotate(90 200 200)"/>

		<use x="0" y="0" xlink:href="#notch_b" transform="rotate(180 200 200)"/>

		<use x="0" y="0" xlink:href="#notch_b" transform="rotate(270 200 200)"/>







		<g fill="#fff" stroke="#444" stroke-width="0.5">
			<g>
				<g id="air_clock_hour" transform="rotate(0 200 200)">
					<polygon points="194,200 206,200 206,82 200,70 194,82 194,200" />
					<polygon points="196,92 204,92 204,82 200,74 196,82 196,92" fill="#8c0" stroke-width="0" />
				</g>
				<animateTransform attributeType="xml"
					attributeName="transform"
					type="rotate"
					from="0 200 200"
					to="360 200 200"
					dur="43200s"
					repeatCount="indefinite"/>
			</g>
			<g>
				<g id="air_clock_minute" transform="rotate(0 200 200)">
					<polygon points="196,200 204,200 204,38 200,30 196,38 196,200" />
					<polygon points="198,48 202,48 202,38 200,34 198,38 198,48" fill="#8c0" stroke-width="0" />
					<circle r="10" cx="200" cy="200" stroke-dasharray="43.45px 7.17px" />
				</g>
				<animateTransform attributeType="xml"
					attributeName="transform"
					type="rotate"
					from="0 200 200"
					to="360 200 200"
					dur="3600s"
					repeatCount="indefinite"/>
			</g>
		</g>
		<g stroke-width="0" fill="#8c0">
			<g id="air_clock_second" transform="rotate(0 200 200)">
				<polygon points="198,200 202,200 202,55 200,30 198,55 198,200" />
				<circle r="5" cx="200" cy="200" />
			</g>
			<animateTransform attributeType="xml"
				attributeName="transform"
				type="rotate"
				from="0 200 200"
				to="360 200 200"
				dur="60s"
				repeatCount="indefinite"/>
		</g>
	</g>
	<script>
		function air_clock_update() {
			/* Получаем текущее время */
			var date = new Date();
			/* Получаем часы */
			var hours = date.getHours();
			/* Получаем минуты */
			var minutes = date.getMinutes();
			/* Получаем секунды */
			var seconds = date.getSeconds();
			/* Корректировка часов */
			if (hours >= 12) { hours = hours - 12;}
			/* Расчёт углов поворота */
			var h_agr = hours * 30 + (minutes * 30 / 60);
			var m_agr = minutes * 6 + (seconds * 6 / 60);
			var s_agr = seconds * 6;
			/* Строки для атрибутов */
			var h_str = "rotate(" + h_agr + " 200 200)";
			var m_str = "rotate(" + m_agr + " 200 200)";
			var s_str = "rotate(" + s_agr + " 200 200)";
			/* Обновляем атрибуты */
			document.getElementById("air_clock_hour").setAttribute("transform", h_str);
			document.getElementById("air_clock_minute").setAttribute("transform", m_str);
			document.getElementById("air_clock_second").setAttribute("transform", s_str);
		}
		air_clock_update();
	</script>
</svg>