<?xml version="1.0" encoding="UTF-8" standalone="no"?>
<svg xmlns="http://www.w3.org/2000/svg" xmlns:xlink="http://www.w3.org/1999/xlink" viewBox="0 0 400 400">

	<linearGradient id="air_clock_body" y1="-20%" y2="120%">
		<stop stop-color="#bba" offset="45%"/>
		<stop stop-color="#ffe" offset="50%"/>
		<stop stop-color="#bba" offset="55%"/>
	</linearGradient>

	<linearGradient id="air_clock_glass" y1="-20%" y2="120%">
		<stop stop-color="#000" offset="25%"/>
		<stop stop-color="#666" offset="50%"/>
		<stop stop-color="#000" offset="75%"/>
	</linearGradient>

	<rect width="100%" height="100%" fill="url(#air_clock_body)"/>
	<polygon points="285,5 395,115 395,285 285,395 115,395 5,285 5,115 115,5" fill="url(#air_clock_glass)" stroke-width="4" stroke="#eee"/>

	<g id="air_clock_vint" fill="#888" stroke-width="4" stroke="#222">
		<circle r="20" cx="30" cy="30" stroke-width="1"/>
		<line x1="20" y1="20" x2="40" y2="40"/>
		<line x1="20" y1="40" x2="40" y2="20"/>
		<g stroke-width="2">
			<line x1="30" y1="20" x2="30" y2="40"/>
			<line x1="20" y1="30" x2="40" y2="30"/>
		</g>
	</g>
	<use x="0" y="0" xlink:href="#air_clock_vint" transform="rotate(90 200 200)"/>
	<use x="0" y="0" xlink:href="#air_clock_vint" transform="rotate(180 200 200)"/>
	<use x="0" y="0" xlink:href="#air_clock_vint" transform="rotate(270 200 200)"/>

	<g fill="#fff" stroke-width="1" stroke="#fff" font-size="40" font-family="Arial" text-anchor="middle">
		<text x="200" y="290">AirClock v2.0</text>
		<text x="200" y="315" font-size="20">© RD 2018</text>
	</g>
	<g id="air_clock_quarter">
		<g fill="#000" stroke="#fff" stroke-width="2">

			<g id="air_clock_notch_s">
				<polygon points="203,15 203,20 200,30 197,20 197,15" transform="rotate(0 200 200)"/>
			</g>

			<g id="air_clock_notch_5s">
				<g fill="#0a0">
					<polygon points="205,15 205,30 200,45 195,30 195,15" transform="rotate(0 200 200)"/>
				</g>
				<use x="0" y="0" xlink:href="#air_clock_notch_s" transform="rotate(6 200 200)"/>
				<use x="0" y="0" xlink:href="#air_clock_notch_s" transform="rotate(12 200 200)"/>
				<use x="0" y="0" xlink:href="#air_clock_notch_s" transform="rotate(18 200 200)"/>
				<use x="0" y="0" xlink:href="#air_clock_notch_s" transform="rotate(24 200 200)"/>
			</g>

			<use x="0" y="0" xlink:href="#air_clock_notch_5s" transform="rotate(30 200 200)"/>
			<use x="0" y="0" xlink:href="#air_clock_notch_5s" transform="rotate(60 200 200)"/>

			<g fill="#a00">
				<polygon points="205,15 205,45 200,60 195,45 195,15" transform="rotate(0 200 200)"/>
			</g>
		</g>
	</g>
	<use x="0" y="0" xlink:href="#air_clock_quarter" transform="rotate(90 200 200)"/>
	<use x="0" y="0" xlink:href="#air_clock_quarter" transform="rotate(180 200 200)"/>
	<use x="0" y="0" xlink:href="#air_clock_quarter" transform="rotate(270 200 200)"/>


	<g fill="#fff" stroke="#444" stroke-width="0.5">
		<g>
			<g id="air_clock_hour" transform="rotate(0 200 200)">
				<polygon points="206,200 206,82 200,70 194,82 194,200"/>
				<polygon points="204,92 204,82 200,74 196,82 196,92" fill="#8c0" stroke-width="0"/>
			</g>
		</g>
		<g>
			<g id="air_clock_minute" transform="rotate(0 200 200)">
				<polygon points="204,200 204,38 200,30 196,38 196,200"/>
				<polygon points="202,48 202,38 200,34 198,38 198,48" fill="#8c0" stroke-width="0"/>
				<circle r="10" cx="200" cy="200" stroke-dasharray="43.45px 7.17px"/>
			</g>
		</g>
	</g>
	<g stroke-width="0" fill="#8c0">
		<g id="air_clock_second" transform="rotate(0 200 200)">
			<polygon points="202,200 202,55 200,30 198,55 198,200"/>
			<circle r="5" cx="200" cy="200"/>
		</g>
	</g>
	<script type="text/javascript">
		function air_clock_update() {
			/* Получаем текущее время */
			var date = new Date();
			/* Получаем часы */
			var hours = date.getHours();
			/* Получаем минуты */
			var minutes = date.getMinutes();
			/* Получаем секунды */
			var seconds = date.getSeconds();
			/* Корректировка часов */
			if (hours >= 12) { hours = hours - 12;}
			/* Расчёт углов поворота */
			var h_agr = hours * 30 + (minutes * 30 / 60);
			var m_agr = minutes * 6 + (seconds * 6 / 60);
			var s_agr = seconds * 6;
			/* Строки для атрибутов */
			var h_str = "rotate(" + h_agr + " 200 200)";
			var m_str = "rotate(" + m_agr + " 200 200)";
			var s_str = "rotate(" + s_agr + " 200 200)";
			/* Обновляем атрибуты */
			document.getElementById("air_clock_hour").setAttribute("transform", h_str);
			document.getElementById("air_clock_minute").setAttribute("transform", m_str);
			document.getElementById("air_clock_second").setAttribute("transform", s_str);
		}
		/*Первоначальное выставление времени*/
		air_clock_update();
		/* Вызов функции часов каждую секунду */
		setInterval(air_clock_update, 1000);
	</script>
</svg>